<svg version="1.2" xmlns="http://www.w3.org/2000/svg" viewBox="0 0 800 800" width="800" height="800">
	<style>
		.s0 { fill: none;stroke: #000000;stroke-linejoin: round;stroke-width: 32 } 
	</style>
	<path fill-rule="evenodd" class="s0" d="m476.94 53h197.37c41.53 0 75.19 33.66 75.19 75.19v197.37c0 41.53-33.66 75.19-75.19 75.19h-197.37c-41.53 0-75.19-33.66-75.19-75.19v-197.37c0-41.53 33.66-75.19 75.19-75.19z"/>
	<path fill-rule="evenodd" class="s0" d="m129.19 400.75h197.37c41.53 0 75.19 33.66 75.19 75.19v197.37c0 41.53-33.66 75.19-75.19 75.19h-197.37c-41.53 0-75.19-33.66-75.19-75.19v-197.37c0-41.53 33.66-75.19 75.19-75.19z"/>
	<path fill-rule="evenodd" class="s0" d="m476.94 400.75h197.37c41.53 0 75.19 33.66 75.19 75.19v197.37c0 41.53-33.66 75.19-75.19 75.19h-197.37c-41.53 0-75.19-33.66-75.19-75.19v-197.37c0-41.53 33.66-75.19 75.19-75.19z"/>
	<path fill-rule="evenodd" class="s0" d="m129.19 53h197.37c41.53 0 75.19 33.66 75.19 75.19v197.37c0 41.53-33.66 75.19-75.19 75.19h-197.37c-41.53 0-75.19-33.66-75.19-75.19v-197.37c0-41.53 33.66-75.19 75.19-75.19z"/>
	<path fill-rule="evenodd" class="s0" d="m266.5 668.61l-0.02-187.97-100.86 126.26h124.53"/>
	<path class="s0" d="m513.36 258.6c0 16.51 6.56 32.35 18.24 44.02 11.67 11.68 27.51 18.24 44.03 18.24 16.51 0 32.35-6.56 44.02-18.24 11.68-11.67 18.24-27.51 18.24-44.02v-63.45c0-16.51-6.56-32.35-18.24-44.02-11.67-11.68-27.51-18.24-44.02-18.24-16.52 0-32.36 6.56-44.03 18.24-11.68 11.67-18.24 27.51-18.24 44.02z"/>
	<path class="s0" d="m165.61 195.15c0-16.51 6.56-32.35 18.24-44.02 11.67-11.68 27.51-18.24 44.02-18.24 16.52 0 32.36 6.56 44.03 18.24 11.68 11.67 18.24 27.51 18.24 44.02 0.12 4.1-0.19 8.19-0.93 12.22-0.73 4.03-1.9 7.97-3.46 11.75-1.57 3.79-3.53 7.4-5.86 10.77-2.33 3.37-5 6.49-7.98 9.29-25.19 22.11-106.3 81.68-106.3 81.68h124.53"/>
	<path class="s0" d="m560.35 574.63c-6.17 0-12.28 1.21-17.98 3.57-5.7 2.36-10.88 5.83-15.25 10.19-4.36 4.36-7.82 9.54-10.18 15.24-2.37 5.71-3.58 11.82-3.58 17.99 0 6.17 1.21 12.28 3.58 17.98 2.36 5.7 5.82 10.88 10.18 15.25 4.37 4.36 9.55 7.82 15.25 10.18 5.7 2.37 11.81 3.58 17.98 3.58h30.55c6.17 0 12.28-1.21 17.98-3.58 5.7-2.36 10.88-5.82 15.25-10.18 4.36-4.37 7.82-9.55 10.18-15.25 2.37-5.7 3.58-11.81 3.58-17.98 0-6.17-1.21-12.28-3.58-17.99-2.36-5.7-5.82-10.88-10.18-15.24-4.37-4.36-9.55-7.83-15.25-10.19-5.7-2.36-11.81-3.57-17.98-3.57"/>
	<path class="s0" d="m590.9 574.63c6.17 0 12.28-1.22 17.98-3.58 5.7-2.36 10.88-5.83 15.25-10.19 4.36-4.36 7.82-9.54 10.18-15.24 2.37-5.71 3.58-11.82 3.58-17.99 0-6.17-1.21-12.28-3.58-17.98-2.36-5.7-5.82-10.88-10.18-15.25-4.37-4.36-9.55-7.82-15.25-10.18-5.7-2.37-11.81-3.58-17.98-3.58h-30.55c-6.17 0-12.28 1.21-17.98 3.58-5.7 2.36-10.88 5.82-15.25 10.18-4.36 4.37-7.82 9.55-10.18 15.25-2.37 5.7-3.58 11.81-3.58 17.98 0 6.17 1.21 12.28 3.58 17.99 2.36 5.7 5.82 10.88 10.18 15.24 4.37 4.36 9.55 7.83 15.25 10.19 5.7 2.36 11.81 3.58 17.98 3.58"/>
	<path fill-rule="evenodd" class="s0" d="m560.35 574.63h30.55"/>
</svg>